<?xml version="1.0" encoding="UTF-8" standalone="no"?>
<svg width="517px" height="517px" viewBox="0 0 517 517" version="1.1" xmlns="http://www.w3.org/2000/svg" xmlns:xlink="http://www.w3.org/1999/xlink">
    <!-- Generator: Sketch 3.6.1 (26313) - http://www.bohemiancoding.com/sketch -->
    <title>bird</title>
    <desc>Created with Sketch.</desc>
    <defs></defs>
    <g id="Page-1" stroke="none" stroke-width="1" fill="none" fill-rule="evenodd">
        <g id="bird" fill="#FFFFFF">
            <path d="M161.736242,130.403833 C160.824596,105.323476 141.650787,89 125.739377,89 C109.827968,89 96.0349429,111.770042 96.0349429,111.770042 C96.0349429,111.770042 73,129.288765 73,132.220675 C73,135.152586 103.646731,133.678778 103.646731,133.678778 C103.646731,133.678778 112.251423,139.88646 112.251423,143.241584 C112.251423,146.596708 98.6451469,198.910686 98.6451469,198.910686 L98.2124888,239.888826 C98.2124888,239.888826 105.315351,286.645648 121.260262,303.074927 C137.205172,319.504206 187.014307,354.339965 187.014307,354.339965 C187.014307,354.339965 202.90861,362.387633 202.90861,385.642056 C202.90861,385.642056 196.047381,395.43796 193.417931,395.43796 C190.788482,395.43796 160.577261,388.842608 160.577261,388.842608 C160.577261,388.842608 149.221234,400.176793 154.899247,399.18158 C160.577261,398.186367 192.751481,404.723858 192.751481,404.723858 C192.751481,404.723858 216.773626,407.954167 220.160048,405.594256 C223.546471,403.234345 218.369542,396.023185 216.287509,394.87092 C214.205476,393.718655 240.367389,376.261926 245.646245,376.261926 C250.925101,376.261926 311.718191,378.41767 311.718191,378.41767 C311.718191,378.41767 358.769576,385.675119 363.514559,389.108769 C368.259542,392.542419 433.298668,428.179969 433.298668,428.179969 L444.890625,427.968362 L408.471794,391.747241 L419.469291,390.915692 L409.100466,375.074118 L424.809446,375.741175 C424.809446,375.741175 431.311435,364.500394 428.060441,361.513929 C424.809446,358.527463 411.298683,343.80757 379.597749,340.507828 C347.896815,337.208085 294.064031,271.648021 294.064031,271.648021 C294.064031,271.648021 224.988427,214.673735 210.895321,210.072115 C196.802216,205.470495 179.679078,186.924322 179.679078,186.924322 C179.679078,186.924322 162.647889,155.48419 161.736242,130.403833 Z" id="Path-2"></path>
        </g>
    </g>
</svg>